<svg width="281" height="179" viewBox="0 0 281 179" fill="none" xmlns="http://www.w3.org/2000/svg">
<rect width="281" height="179" fill="#2BC4CC"/>
<path d="M138.963 164.812C147.545 164.812 154.503 160.6 154.503 155.403C154.503 150.206 147.545 145.993 138.963 145.993C130.38 145.993 123.422 150.206 123.422 155.403C123.422 160.6 130.38 164.812 138.963 164.812Z" fill="#4E4F6E"/>
<path d="M112.008 132.916H164.34C164.507 121.716 168.919 110.99 176.698 102.872C183.696 95.3989 188.333 86.0535 190.036 75.9923C191.738 65.9311 190.431 55.5954 186.276 46.2636C182.121 36.9318 175.3 29.0134 166.658 23.4878C158.015 17.9621 147.93 15.0716 137.65 15.1738C127.369 15.276 117.344 18.3665 108.815 24.0629C100.286 29.7593 93.6268 37.8117 89.6611 47.2242C85.6953 56.6367 84.5971 66.9963 86.5022 77.0217C88.4073 87.0471 93.2322 96.2983 100.38 103.631C107.91 111.544 112.075 122.033 112.008 132.916V132.916Z" fill="#FFF971"/>
<g filter="url(#filter0_i)">
<path d="M158.52 132.916H117.833C117.053 132.916 116.305 133.224 115.754 133.771C115.203 134.318 114.893 135.06 114.893 135.833C114.893 136.607 115.203 137.349 115.754 137.896C116.305 138.443 117.053 138.751 117.833 138.751H158.52C159.3 138.751 160.048 138.443 160.599 137.896C161.15 137.349 161.46 136.607 161.46 135.833C161.46 135.06 161.15 134.318 160.599 133.771C160.048 133.224 159.3 132.916 158.52 132.916V132.916Z" fill="#D9E2E9"/>
</g>
<g filter="url(#filter1_i)">
<path d="M158.52 138.75H117.833C117.053 138.75 116.305 139.058 115.754 139.605C115.203 140.152 114.893 140.894 114.893 141.668C114.893 142.441 115.203 143.183 115.754 143.73C116.305 144.277 117.053 144.585 117.833 144.585H158.52C159.3 144.585 160.048 144.277 160.599 143.73C161.15 143.183 161.46 142.441 161.46 141.668C161.46 140.894 161.15 140.152 160.599 139.605C160.048 139.058 159.3 138.75 158.52 138.75V138.75Z" fill="#D9E2E9"/>
</g>
<g filter="url(#filter2_i)">
<path d="M158.52 144.585H117.833C117.053 144.585 116.305 144.892 115.754 145.439C115.203 145.986 114.893 146.728 114.893 147.502C114.893 148.275 115.203 149.017 115.754 149.564C116.305 150.111 117.053 150.419 117.833 150.419H158.52C159.3 150.419 160.048 150.111 160.599 149.564C161.15 149.017 161.46 148.275 161.46 147.502C161.46 146.728 161.15 145.986 160.599 145.439C160.048 144.892 159.3 144.585 158.52 144.585Z" fill="#D9E2E9"/>
</g>
<g filter="url(#filter3_i)">
<path d="M158.52 150.419H117.833C117.053 150.419 116.305 150.726 115.754 151.273C115.203 151.82 114.893 152.562 114.893 153.336C114.893 154.11 115.203 154.852 115.754 155.399C116.305 155.946 117.053 156.253 117.833 156.253H158.52C159.3 156.253 160.048 155.946 160.599 155.399C161.15 154.852 161.46 154.11 161.46 153.336C161.46 152.562 161.15 151.82 160.599 151.273C160.048 150.726 159.3 150.419 158.52 150.419V150.419Z" fill="#D9E2E9"/>
</g>
<path d="M140 24.8571C176.471 32.0952 188.923 64.2167 176.471 82.7619C164.018 101.307 156.412 111.714 156.412 129.809" stroke="#FFFECD"/>
<path d="M61.5883 66.7858C60.7598 66.7858 60.0883 67.4573 60.0883 68.2858C60.0883 69.1142 60.7598 69.7858 61.5883 69.7858V66.7858ZM76.1765 69.7858C77.0049 69.7858 77.6765 69.1142 77.6765 68.2858C77.6765 67.4573 77.0049 66.7858 76.1765 66.7858V69.7858ZM61.5883 69.7858H76.1765V66.7858H61.5883V69.7858Z" fill="white"/>
<path d="M214.765 66.7858C215.593 66.7858 216.265 67.4573 216.265 68.2858C216.265 69.1142 215.593 69.7858 214.765 69.7858V66.7858ZM200.177 69.7858C199.348 69.7858 198.677 69.1142 198.677 68.2858C198.677 67.4573 199.348 66.7858 200.177 66.7858V69.7858ZM214.765 69.7858H200.177V66.7858H214.765V69.7858Z" fill="white"/>
<path d="M62.878 48.804C62.1665 48.4617 61.3062 48.8261 60.9564 49.6179C60.6066 50.4096 60.8998 51.3289 61.6114 51.6711L62.878 48.804ZM76.4637 58.8152C77.1752 59.1574 78.0356 58.7931 78.3854 58.0013C78.7352 57.2096 78.4419 56.2903 77.7304 55.9481L76.4637 58.8152ZM61.6114 51.6711L76.4637 58.8152L77.7304 55.9481L62.878 48.804L61.6114 51.6711Z" fill="white"/>
<path d="M213.475 48.804C214.186 48.4617 215.047 48.8261 215.397 49.6179C215.746 50.4096 215.453 51.3289 214.742 51.6711L213.475 48.804ZM199.889 58.8152C199.178 59.1574 198.317 58.7931 197.968 58.0013C197.618 57.2096 197.911 56.2903 198.623 55.9481L199.889 58.8152ZM214.742 51.6711L199.889 58.8152L198.623 55.9481L213.475 48.804L214.742 51.6711Z" fill="white"/>
<path d="M64.1749 88.2312C63.4404 88.5612 63.1345 89.455 63.4915 90.2275C63.8485 91.0001 64.7333 91.3589 65.4677 91.0289L64.1749 88.2312ZM80.4699 84.2884C81.2043 83.9585 81.5103 83.0647 81.1533 82.2921C80.7963 81.5195 79.9115 81.1608 79.177 81.4907L80.4699 84.2884ZM65.4677 91.0289L80.4699 84.2884L79.177 81.4907L64.1749 88.2312L65.4677 91.0289Z" fill="white"/>
<path d="M212.178 88.2312C212.913 88.5612 213.219 89.455 212.862 90.2275C212.505 91.0001 211.62 91.3589 210.885 91.0289L212.178 88.2312ZM195.883 84.2884C195.149 83.9585 194.843 83.0647 195.2 82.2921C195.557 81.5195 196.442 81.1608 197.176 81.4907L195.883 84.2884ZM210.885 91.0289L195.883 84.2884L197.176 81.4907L212.178 88.2312L210.885 91.0289Z" fill="white"/>
<defs>
<filter id="filter0_i" x="114.893" y="131.916" width="46.5669" height="6.8342" filterUnits="userSpaceOnUse" color-interpolation-filters="sRGB">
<feFlood flood-opacity="0" result="BackgroundImageFix"/>
<feBlend mode="normal" in="SourceGraphic" in2="BackgroundImageFix" result="shape"/>
<feColorMatrix in="SourceAlpha" type="matrix" values="0 0 0 0 0 0 0 0 0 0 0 0 0 0 0 0 0 0 127 0" result="hardAlpha"/>
<feOffset dy="-1"/>
<feGaussianBlur stdDeviation="0.5"/>
<feComposite in2="hardAlpha" operator="arithmetic" k2="-1" k3="1"/>
<feColorMatrix type="matrix" values="0 0 0 0 1 0 0 0 0 1 0 0 0 0 1 0 0 0 1 0"/>
<feBlend mode="normal" in2="shape" result="effect1_innerShadow"/>
</filter>
<filter id="filter1_i" x="114.893" y="137.75" width="46.5669" height="6.83418" filterUnits="userSpaceOnUse" color-interpolation-filters="sRGB">
<feFlood flood-opacity="0" result="BackgroundImageFix"/>
<feBlend mode="normal" in="SourceGraphic" in2="BackgroundImageFix" result="shape"/>
<feColorMatrix in="SourceAlpha" type="matrix" values="0 0 0 0 0 0 0 0 0 0 0 0 0 0 0 0 0 0 127 0" result="hardAlpha"/>
<feOffset dy="-1"/>
<feGaussianBlur stdDeviation="0.5"/>
<feComposite in2="hardAlpha" operator="arithmetic" k2="-1" k3="1"/>
<feColorMatrix type="matrix" values="0 0 0 0 1 0 0 0 0 1 0 0 0 0 1 0 0 0 1 0"/>
<feBlend mode="normal" in2="shape" result="effect1_innerShadow"/>
</filter>
<filter id="filter2_i" x="114.893" y="143.585" width="46.5669" height="6.83418" filterUnits="userSpaceOnUse" color-interpolation-filters="sRGB">
<feFlood flood-opacity="0" result="BackgroundImageFix"/>
<feBlend mode="normal" in="SourceGraphic" in2="BackgroundImageFix" result="shape"/>
<feColorMatrix in="SourceAlpha" type="matrix" values="0 0 0 0 0 0 0 0 0 0 0 0 0 0 0 0 0 0 127 0" result="hardAlpha"/>
<feOffset dy="-1"/>
<feGaussianBlur stdDeviation="0.5"/>
<feComposite in2="hardAlpha" operator="arithmetic" k2="-1" k3="1"/>
<feColorMatrix type="matrix" values="0 0 0 0 1 0 0 0 0 1 0 0 0 0 1 0 0 0 1 0"/>
<feBlend mode="normal" in2="shape" result="effect1_innerShadow"/>
</filter>
<filter id="filter3_i" x="114.893" y="149.419" width="46.5669" height="6.8342" filterUnits="userSpaceOnUse" color-interpolation-filters="sRGB">
<feFlood flood-opacity="0" result="BackgroundImageFix"/>
<feBlend mode="normal" in="SourceGraphic" in2="BackgroundImageFix" result="shape"/>
<feColorMatrix in="SourceAlpha" type="matrix" values="0 0 0 0 0 0 0 0 0 0 0 0 0 0 0 0 0 0 127 0" result="hardAlpha"/>
<feOffset dy="-1"/>
<feGaussianBlur stdDeviation="0.5"/>
<feComposite in2="hardAlpha" operator="arithmetic" k2="-1" k3="1"/>
<feColorMatrix type="matrix" values="0 0 0 0 1 0 0 0 0 1 0 0 0 0 1 0 0 0 1 0"/>
<feBlend mode="normal" in2="shape" result="effect1_innerShadow"/>
</filter>
</defs>
</svg>
