<svg width="281" height="211" viewBox="0 0 281 211" fill="none" xmlns="http://www.w3.org/2000/svg">
<g clip-path="url(#clip0)">
<rect width="281" height="211" fill="#EE728A"/>
<path d="M95 55.1279L244.5 -0.5H281.5V192L95 70.1279V55.1279Z" fill="#F18197"/>
<path d="M85 69.8544L93.1909 73.8704C93.5779 74.0607 94.0381 74.0404 94.4067 73.8165C94.7754 73.5939 95 73.1989 95 72.7739V52.2261C95 51.8011 94.7754 51.4061 94.4067 51.1835C94.0381 50.9597 93.5779 50.9393 93.1909 51.1296L85 55.1456V69.8544Z" fill="#FBF1FE"/>
<path d="M32.5625 48H82.4375C84.4049 48 86 49.5671 86 51.5V72.5C86 74.4329 84.4049 76 82.4375 76H32.5625C30.5951 76 29 74.4329 29 72.5V51.5C29 49.5671 30.5951 48 32.5625 48Z" fill="#534F71"/>
<path d="M57.1 37.55C57.1 43.3762 52.3762 48.1 46.55 48.1C40.7238 48.1 36 43.3762 36 37.55C36 31.7238 40.7238 27 46.55 27C52.3762 27 57.1 31.7238 57.1 37.55Z" fill="#534F71"/>
<path d="M79.1 37.55C79.1 43.3762 74.3762 48.1 68.55 48.1C62.7238 48.1 58 43.3762 58 37.55C58 31.7238 62.7238 27 68.55 27C74.3762 27 79.1 31.7238 79.1 37.55Z" fill="#534F71"/>
<path d="M34 55C34 54.4477 34.4477 54 35 54H45C45.5523 54 46 54.4477 46 55V58C46 58.5523 45.5523 59 45 59H35C34.4477 59 34 58.5523 34 58V55Z" fill="#414159"/>
<path d="M15.1762 212.293L51.3338 86.0364L58.1577 87.7432L22 214L15.1762 212.293Z" fill="#414159"/>
<path d="M56.6552 87.7415L63.479 86.0347L99.8238 212.293L93 214L56.6552 87.7415Z" fill="#414159"/>
<path d="M43.3372 76H71.4705V83.0333C71.4705 86.9175 68.3213 90.0667 64.4372 90.0667H50.3705C46.4864 90.0667 43.3372 86.9175 43.3372 83.0333V76Z" fill="#534F71"/>
<path d="M76 37.5C76 41.6418 72.6418 45 68.5 45C64.3582 45 61 41.6418 61 37.5C61 33.3582 64.3582 30 68.5 30C72.6418 30 76 33.3582 76 37.5Z" fill="#45425E"/>
<circle cx="46.5" cy="37.5" r="7.5" fill="#45425E"/>
<circle cx="46.5" cy="34.8" r="1.8" fill="#534F71"/>
<circle cx="43.8" cy="40.2" r="1.8" fill="#534F71"/>
<circle cx="49.2" cy="40.2" r="1.8" fill="#534F71"/>
<circle cx="71.8" cy="68.8" r="1.8" fill="#45425E"/>
<circle cx="76.8" cy="68.8" r="1.8" fill="#45425E"/>
<circle cx="68.5" cy="34.8" r="1.8" fill="#534F71"/>
<circle cx="65.8" cy="40.2" r="1.8" fill="#534F71"/>
<circle cx="71.2" cy="40.2" r="1.8" fill="#534F71"/>
<path d="M29 51C29 49.3431 30.3431 48 32 48H83C84.6569 48 86 49.3431 86 51V51H29V51Z" fill="#FBF1FE"/>
<path d="M29 73C29 74.6569 30.3431 76 32 76H83C84.6569 76 86 74.6569 86 73V73H29V73Z" fill="#FBF1FE"/>
</g>
<defs>
<clipPath id="clip0">
<rect width="281" height="211" fill="white"/>
</clipPath>
</defs>
</svg>
