<svg width="641" height="269" viewBox="0 0 641 269" fill="none" xmlns="http://www.w3.org/2000/svg">
<rect width="641" height="269" fill="white"/>
<rect width="640.743" height="269" fill="#AB8FD9"/>
<g clip-path="url(#clip0)">
<path d="M357.121 148.54C359.142 148.772 361.187 148.419 363.013 147.525C364.219 146.958 365.297 146.154 366.184 145.162C367.071 144.169 367.748 143.009 368.175 141.75C368.602 140.491 368.77 139.158 368.669 137.833C368.568 136.507 368.201 135.216 367.588 134.035C366.444 131.915 364.602 130.253 362.372 129.33C360.143 128.406 357.662 128.278 355.348 128.965C355.232 127.311 354.767 125.7 353.984 124.236C350.84 118.244 343.268 115.848 337.069 118.887C330.87 121.926 328.405 129.237 331.55 135.245C332.486 137.026 333.847 138.549 335.514 139.679C334.052 141.428 333.144 143.57 332.903 145.833C332.662 148.097 333.1 150.382 334.162 152.397C337.209 158.211 344.547 160.537 350.556 157.58C352.314 156.731 353.833 155.461 354.979 153.884C356.124 152.306 356.86 150.47 357.121 148.54Z" fill="#FAEDD3"/>
<path d="M350.541 157.58C352.301 156.733 353.824 155.464 354.972 153.886C356.12 152.309 356.859 150.472 357.121 148.54C359.142 148.772 361.187 148.419 363.013 147.525C364.453 146.831 365.706 145.805 366.67 144.533C367.634 143.26 368.28 141.777 368.556 140.206C367.329 141.615 365.83 142.762 364.148 143.579C362.335 144.469 360.355 144.969 358.336 145.045C356.317 145.121 354.304 144.772 352.429 144.021C351.938 145.935 351.034 147.719 349.78 149.249C348.527 150.779 346.955 152.019 345.173 152.882C342.034 154.419 338.441 154.761 335.067 153.843C336.801 156.172 339.299 157.821 342.126 158.504C344.953 159.186 347.93 158.859 350.541 157.58Z" fill="#EEC36B"/>
<path d="M321.969 138.664C322.952 138.691 323.935 138.598 324.896 138.388C331.161 137.02 335.095 131.024 333.684 124.981C332.37 119.349 326.859 115.678 321.036 116.329C321.128 115.367 321.062 114.397 320.842 113.457C319.676 108.499 314.569 105.39 309.423 106.514C304.277 107.638 301.058 112.546 302.193 117.492C300.587 118.06 299.244 119.194 298.417 120.68C297.59 122.166 297.335 123.902 297.7 125.562C298.119 127.243 299.132 128.717 300.553 129.714C301.973 130.71 303.707 131.163 305.435 130.989C304.424 132.065 303.695 133.373 303.312 134.796C302.928 136.22 302.902 137.716 303.235 139.152C304.401 144.11 309.504 147.219 314.654 146.094C316.474 145.717 318.14 144.809 319.443 143.486C320.745 142.164 321.624 140.485 321.969 138.664ZM310.732 128.074H310.67L310.729 127.992C310.732 128.019 310.734 128.047 310.732 128.074Z" fill="#FAEDD3"/>
<path d="M314.654 146.083C316.472 145.706 318.138 144.8 319.44 143.48C320.742 142.159 321.622 140.483 321.969 138.664C322.952 138.691 323.935 138.598 324.896 138.388C331.161 137.02 335.095 131.024 333.684 124.981C333.384 123.689 332.849 122.463 332.106 121.364C332.172 121.57 332.23 121.779 332.277 121.992C333.563 127.489 329.98 132.958 324.274 134.202C322.095 134.683 319.82 134.481 317.76 133.625C318.844 138.664 315.548 143.614 310.328 144.753C309.744 144.881 309.15 144.956 308.552 144.978L307.984 145.195C310.033 146.265 312.396 146.58 314.654 146.083Z" fill="#EEC36B"/>
<path d="M414.708 172.994C414.708 170.519 410.365 168.508 404.988 168.504C402.78 168.491 400.629 168.838 398.893 169.486C397.157 170.135 395.941 171.046 395.447 172.068C394.789 169.892 390.748 168.214 385.821 168.211C380.443 168.211 376.081 170.21 376.069 172.685C376.069 172.732 376.069 172.778 376.069 172.825C376.069 172.739 376.069 172.693 376.069 172.685C376.069 170.249 371.796 168.339 366.501 168.335C361.206 168.331 356.91 170.305 356.902 172.741C356.902 172.765 356.902 172.787 356.902 172.812C356.902 172.765 356.902 172.719 356.902 172.67C356.902 170.195 352.558 168.186 347.181 168.181C341.804 168.175 337.437 170.182 337.429 172.657C337.429 172.704 337.429 172.75 337.429 172.797V172.726C337.429 170.29 333.152 168.311 327.861 168.307C322.57 168.304 318.27 170.277 318.262 172.713C318.262 172.737 318.262 172.76 318.262 172.782C318.262 172.735 318.262 172.691 318.262 172.642C318.262 170.167 313.919 168.157 308.542 168.153C303.164 168.149 298.798 170.152 298.79 172.629C298.79 172.676 298.79 172.722 298.79 172.769C298.79 172.745 298.79 172.722 298.79 172.698C298.79 170.262 294.513 168.283 289.222 168.279C283.931 168.276 279.63 170.247 279.623 172.685C279.623 172.685 279.623 172.713 279.623 172.754C279.623 172.708 279.623 172.661 279.623 172.615C279.623 170.139 275.279 168.129 269.902 168.125C264.525 168.121 260.158 170.124 260.15 172.6C260.15 172.648 260.15 172.695 260.15 172.741C260.15 172.717 260.15 172.695 260.15 172.67C260.15 170.234 255.873 168.255 250.578 168.251C245.283 168.248 240.991 170.219 240.979 172.655C240.979 172.983 251.471 249.184 253.755 265.744L254.087 268.107C254.158 268.622 254.197 268.896 254.197 268.896L270.646 268.907V268.881L287.095 268.894C287.095 268.911 287.095 268.92 287.095 268.92L303.219 268.931V268.905L319.602 268.926V268.95L336.031 268.963V268.926L352.48 268.939V268.963L368.91 268.976V268.95L385.339 268.961V268.987L401.463 269C401.465 268.991 401.465 268.983 401.463 268.974H401.518V268.929H401.604L409.405 211.59C412.221 191.201 414.708 173.163 414.708 172.994Z" fill="#812124"/>
<path d="M401.632 269H388.556L402.273 183.566L414.708 179.333L401.632 269Z" fill="#65191A"/>
<path d="M362.189 158.056C361.842 155.775 360.812 153.651 359.235 151.963C357.057 149.65 354.067 148.265 350.889 148.097C347.712 147.928 344.592 148.99 342.18 151.06C340.079 152.85 338.698 155.336 338.291 158.062C337.884 160.787 338.478 163.567 339.965 165.89C338.089 166.501 336.356 167.481 334.869 168.774C333.442 169.99 332.277 171.481 331.444 173.157C330.611 174.834 330.127 176.662 330.021 178.53C329.916 180.398 330.19 182.269 330.829 184.028C331.468 185.788 332.458 187.4 333.738 188.768C336.379 191.573 340.003 193.253 343.856 193.457C347.709 193.662 351.492 192.375 354.416 189.865C356.187 188.34 357.55 186.401 358.384 184.221C360.881 185.289 363.629 185.637 366.314 185.226C369 184.815 371.516 183.661 373.577 181.895C374.96 180.717 376.09 179.272 376.897 177.647C377.705 176.021 378.175 174.25 378.278 172.439C378.38 170.628 378.114 168.815 377.496 167.109C376.877 165.403 375.918 163.84 374.677 162.514C373.104 160.83 371.15 159.546 368.977 158.771C366.804 157.995 364.476 157.75 362.189 158.056Z" fill="#FAEDD3"/>
<path d="M374.677 162.495C373.102 160.814 371.147 159.534 368.974 158.762C366.801 157.99 364.475 157.748 362.189 158.056C361.842 155.775 360.812 153.651 359.235 151.963C357.948 150.588 356.361 149.527 354.596 148.864C352.831 148.2 350.937 147.952 349.06 148.137C351.049 149.028 352.838 150.311 354.318 151.909C355.885 153.58 357.058 155.578 357.753 157.757C358.448 159.937 358.648 162.244 358.337 164.51C360.675 164.45 362.999 164.885 365.155 165.787C367.311 166.689 369.25 168.037 370.845 169.743C373.56 172.646 375.049 176.48 375.004 180.449C377.185 177.946 378.359 174.725 378.298 171.409C378.238 168.094 376.948 164.918 374.677 162.495Z" fill="#EEC36B"/>
<path d="M312.007 201.276C314.289 201.908 316.705 201.875 318.968 201.179C325.331 199.241 328.852 192.652 326.839 186.519C325.043 181.042 319.454 177.748 313.772 178.469C313.967 176.555 313.758 174.622 313.158 172.794C310.717 165.34 302.485 161.212 294.773 163.572C287.062 165.933 282.794 173.891 285.235 181.345C285.961 183.559 287.228 185.557 288.924 187.159C286.906 188.885 285.445 191.168 284.725 193.719C284.004 196.271 284.056 198.979 284.874 201.501C287.237 208.726 295.213 212.742 302.687 210.44C304.873 209.788 306.866 208.612 308.491 207.015C310.116 205.417 311.323 203.447 312.007 201.276Z" fill="#FAEDD3"/>
<path d="M302.679 210.451C304.868 209.8 306.863 208.623 308.49 207.023C310.116 205.423 311.324 203.45 312.007 201.276C314.289 201.908 316.705 201.875 318.968 201.179C320.759 200.645 322.398 199.697 323.753 198.413C325.108 197.129 326.14 195.544 326.765 193.787C325.086 195.193 323.14 196.247 321.044 196.888C318.8 197.578 316.436 197.788 314.106 197.506C311.775 197.223 309.531 196.454 307.518 195.249C306.579 197.364 305.192 199.253 303.452 200.783C301.713 202.314 299.662 203.452 297.44 204.117C293.545 205.315 289.346 205.052 285.632 203.377C288.632 209.397 295.858 212.537 302.679 210.451Z" fill="#EEC36B"/>
<path d="M270.497 163.77C270.818 162.563 270.983 161.321 270.986 160.072C270.986 151.932 264.181 145.319 255.762 145.308C247.899 145.308 241.42 151.037 240.58 158.425C239.33 158.033 238.028 157.833 236.717 157.832C229.799 157.82 224.167 163.235 224.167 169.937C224.167 176.639 229.729 182.035 236.624 182.073C237.277 186.531 241.233 189.962 246.026 189.969C250.818 189.977 254.853 186.481 255.467 181.984C256.646 183.57 258.183 184.858 259.953 185.743C261.724 186.629 263.677 187.087 265.658 187.082C272.576 187.082 278.196 181.678 278.208 174.984C278.195 172.56 277.454 170.195 276.079 168.196C274.704 166.197 272.76 164.655 270.497 163.77ZM253.154 174.588V174.67L253.065 174.573L253.154 174.588Z" fill="#FAEDD3"/>
<path d="M278.193 174.976C278.178 172.554 277.435 170.192 276.06 168.195C274.686 166.198 272.742 164.658 270.481 163.774C270.803 162.567 270.967 161.324 270.971 160.076C270.971 151.936 264.165 145.323 255.747 145.311C253.952 145.306 252.171 145.609 250.48 146.207C250.775 146.207 251.067 146.18 251.366 146.18C259.039 146.18 265.246 152.215 265.234 159.63C265.23 162.478 264.293 165.246 262.568 167.514C269.564 167.635 275.176 173.154 275.165 179.918C275.164 180.679 275.09 181.439 274.943 182.186C274.99 182.438 275.029 182.694 275.064 182.961C277.07 180.783 278.187 177.934 278.193 174.976Z" fill="#EEC36B"/>
<path d="M335.118 160.948C335.441 159.743 335.606 158.501 335.608 157.254C335.608 149.114 328.806 142.497 320.383 142.486C312.52 142.486 306.041 148.219 305.205 155.607C303.954 155.213 302.65 155.012 301.338 155.01C294.42 155.01 288.799 160.417 288.788 167.107C288.776 173.798 294.35 179.201 301.249 179.24C301.898 183.698 305.855 187.132 310.647 187.14C315.439 187.147 319.474 183.651 320.088 179.155C321.267 180.74 322.803 182.028 324.573 182.912C326.342 183.797 328.295 184.255 330.275 184.248C337.197 184.248 342.814 178.845 342.825 172.154C342.81 169.732 342.068 167.37 340.694 165.373C339.321 163.375 337.378 161.834 335.118 160.948ZM317.779 171.759C317.777 171.786 317.777 171.813 317.779 171.84L317.69 171.743L317.779 171.759Z" fill="#FAEDD3"/>
<path d="M342.829 172.154C342.814 169.732 342.071 167.369 340.697 165.372C339.322 163.374 337.379 161.834 335.118 160.948C335.441 159.743 335.606 158.501 335.608 157.254C335.608 149.114 328.806 142.497 320.383 142.486C318.589 142.481 316.807 142.785 315.117 143.385C315.408 143.366 315.704 143.354 315.999 143.354C323.667 143.366 329.886 149.393 329.886 156.804C329.882 159.652 328.946 162.42 327.22 164.689C334.216 164.813 339.829 170.329 339.817 177.093C339.817 177.852 339.742 178.611 339.595 179.356C339.642 179.612 339.685 179.864 339.716 180.131C341.714 177.952 342.825 175.107 342.829 172.154Z" fill="#EEC36B"/>
<path d="M298.664 136.291C299.227 135.318 299.659 134.276 299.951 133.19C301.859 126.151 297.506 118.949 290.234 117.104C283.44 115.379 276.494 118.934 274.049 125.143C273.058 124.53 271.978 124.072 270.847 123.787C264.865 122.267 258.743 125.725 257.173 131.512C255.603 137.299 259.147 143.191 265.11 144.742C264.899 146.73 265.421 148.728 266.578 150.361C267.735 151.994 269.448 153.152 271.398 153.618C273.375 154.139 275.473 153.937 277.312 153.048C279.152 152.159 280.611 150.643 281.426 148.773C282.077 150.402 283.108 151.852 284.434 153.004C285.759 154.156 287.341 154.977 289.048 155.397C295.034 156.917 301.155 153.459 302.722 147.672C303.281 145.588 303.193 143.384 302.468 141.352C301.744 139.32 300.417 137.555 298.664 136.291ZM281.15 141.862L281.131 141.931C281.111 141.896 281.092 141.862 281.076 141.827L281.15 141.862Z" fill="#FAEDD3"/>
<path d="M302.722 147.66C303.279 145.578 303.189 143.377 302.465 141.347C301.74 139.317 300.415 137.554 298.664 136.291C299.227 135.318 299.659 134.276 299.951 133.19C301.859 126.151 297.506 118.949 290.234 117.104C288.681 116.704 287.07 116.573 285.472 116.717C285.729 116.767 285.985 116.821 286.25 116.883C292.881 118.566 296.845 125.128 295.104 131.539C294.43 134.008 292.977 136.195 290.961 137.776C296.977 139.404 300.549 145.397 298.959 151.261C298.782 151.92 298.541 152.56 298.24 153.172C298.22 153.4 298.196 153.628 298.17 153.858C300.398 152.418 302.017 150.213 302.722 147.66Z" fill="#EEC36B"/>
<path d="M398.884 164.045C398.516 162.755 397.894 161.552 397.055 160.504C396.215 159.456 395.175 158.586 393.994 157.944C389 155.188 382.637 156.866 379.784 161.7C378.89 163.204 378.417 164.92 378.413 166.668C378.408 168.417 378.874 170.134 379.761 171.643C377.263 172.874 375.178 174.806 373.764 177.201C369.753 183.992 372.209 192.64 379.205 196.516C386.201 200.392 395.176 198.028 399.183 191.237C399.994 189.868 400.562 188.371 400.862 186.81C406.21 188.163 412.041 185.954 414.909 181.093C418.341 175.278 416.25 167.879 410.245 164.565C408.518 163.615 406.595 163.074 404.625 162.984C402.655 162.894 400.691 163.257 398.884 164.045Z" fill="#FAEDD3"/>
<path d="M398.884 164.045C398.516 162.755 397.894 161.552 397.055 160.504C396.215 159.456 395.175 158.586 393.994 157.944C392.267 156.994 390.309 156.54 388.338 156.631C386.367 156.722 384.46 157.355 382.828 158.46C385.526 157.817 388.368 158.203 390.796 159.541C392.637 160.534 394.137 162.056 395.1 163.91C396.064 165.764 396.446 167.864 396.198 169.937C397.877 168.917 399.797 168.357 401.762 168.314C403.728 168.271 405.67 168.747 407.392 169.693C408.621 170.35 409.705 171.248 410.579 172.332C411.452 173.417 412.097 174.666 412.476 176.005C412.854 177.344 412.957 178.745 412.779 180.125C412.602 181.505 412.147 182.834 411.442 184.035C411.131 184.566 410.772 185.068 410.369 185.535C412.254 184.477 413.825 182.942 414.925 181.085C418.357 175.271 416.265 167.871 410.26 164.557C408.531 163.606 406.605 163.065 404.632 162.976C402.659 162.887 400.692 163.253 398.884 164.045Z" fill="#EEC36B"/>
<path d="M291.773 191.609C294.055 192.243 296.471 192.209 298.734 191.512C305.097 189.574 308.618 182.984 306.605 176.856C304.809 171.379 299.22 168.08 293.537 168.801C293.733 166.889 293.524 164.957 292.923 163.13C290.482 155.673 282.25 151.544 274.539 153.905C266.828 156.266 262.56 164.223 265.001 171.677C265.727 173.891 266.994 175.889 268.689 177.492C266.671 179.218 265.21 181.5 264.49 184.052C263.769 186.604 263.821 189.311 264.639 191.834C267.003 199.055 274.978 203.075 282.452 200.772C284.639 200.121 286.632 198.946 288.257 197.348C289.882 195.75 291.089 193.78 291.773 191.609Z" fill="#FAEDD3"/>
<path d="M282.468 200.788C284.658 200.137 286.653 198.959 288.28 197.358C289.906 195.758 291.114 193.784 291.796 191.609C294.078 192.243 296.494 192.21 298.757 191.512C300.548 190.978 302.187 190.03 303.542 188.746C304.897 187.461 305.929 185.877 306.554 184.12C304.873 185.524 302.928 186.578 300.833 187.221C298.589 187.91 296.225 188.12 293.894 187.836C291.564 187.553 289.319 186.784 287.307 185.578C286.369 187.694 284.982 189.582 283.242 191.113C281.502 192.644 279.451 193.781 277.229 194.446C273.334 195.645 269.135 195.383 265.421 193.71C268.417 199.734 275.643 202.885 282.468 200.788Z" fill="#EEC36B"/>
<g opacity="0.1">
<path opacity="0.1" d="M403.5 180.015C403.5 177.767 399.203 175.945 393.884 175.941C391.699 175.93 389.571 176.244 387.853 176.832C386.135 177.421 384.931 178.247 384.442 179.175C383.791 177.199 379.793 175.677 374.923 175.673C369.604 175.673 365.284 177.489 365.276 179.735C365.276 179.777 365.276 179.82 365.276 179.862C365.276 179.786 365.276 179.74 365.276 179.735C365.276 177.523 361.045 175.791 355.811 175.788C350.577 175.785 346.323 177.578 346.315 179.786C346.315 179.808 346.315 179.828 346.315 179.85C346.315 179.808 346.315 179.764 346.315 179.722C346.315 177.476 342.018 175.651 336.699 175.648C331.379 175.644 327.06 177.464 327.052 179.71C327.052 179.752 327.052 179.794 327.052 179.837C327.052 179.799 327.052 179.776 327.052 179.772C327.052 177.562 322.821 175.766 317.583 175.763C312.345 175.759 308.099 177.55 308.087 179.761C308.087 179.781 308.087 179.803 308.087 179.823C308.087 179.781 308.087 179.739 308.087 179.696C308.087 177.45 303.79 175.626 298.471 175.623C293.152 175.619 288.836 177.437 288.828 179.683C288.828 179.727 288.828 179.769 288.828 179.811C288.828 179.789 288.828 179.769 288.828 179.747C288.828 177.536 284.601 175.741 279.363 175.737C274.125 175.734 269.882 177.523 269.882 179.735C269.882 179.735 269.882 179.762 269.882 179.798C269.882 179.756 269.882 179.713 269.882 179.671C269.882 177.425 265.586 175.601 260.266 175.597C254.947 175.594 250.608 177.41 250.6 179.658C250.6 179.7 250.6 179.742 250.6 179.786C250.6 179.764 250.6 179.744 250.6 179.722C250.6 177.511 246.369 175.715 241.135 175.712C235.901 175.709 231.647 177.497 231.639 179.708C231.639 180.005 242.018 249.152 244.273 264.179L244.61 266.325C244.68 266.791 244.715 267.039 244.715 267.039L260.968 267.049V267.022L277.24 267.034V267.056L293.194 267.068V267.044L309.447 267.054V267.078L325.719 267.09V267.066L341.972 267.076V267.1L358.225 267.112V267.088L374.497 267.098V267.122L390.451 267.132C390.45 267.125 390.45 267.117 390.451 267.11H390.506V267.07H390.595L398.25 215.044C401.036 196.537 403.5 180.167 403.5 180.015Z" fill="#000100"/>
</g>
<path d="M382.845 181.744C382.845 181.702 382.845 181.659 382.845 181.617C382.845 179.371 378.539 177.546 373.207 177.543C367.876 177.54 363.546 179.357 363.538 181.604C363.538 181.648 363.538 181.69 363.538 181.732L344.511 181.719C344.511 181.676 344.511 181.634 344.511 181.592C344.511 179.345 340.204 177.521 334.873 177.518C329.541 177.514 325.211 179.332 325.204 181.578C325.204 181.621 325.204 181.663 325.204 181.707L306.176 181.693C306.176 181.651 306.176 181.609 306.176 181.567C306.176 179.32 301.87 177.496 296.538 177.492C291.206 177.489 286.881 179.307 286.869 181.553C286.869 181.595 286.869 181.638 286.869 181.68L267.841 181.668C267.841 181.626 267.841 181.584 267.841 181.54C267.841 179.293 263.535 177.469 258.203 177.465C252.872 177.462 248.542 179.281 248.534 181.528C248.534 181.57 248.534 181.612 248.534 181.654L229.771 181.643L242.943 268.902L388.685 269L401.632 181.757L382.845 181.744Z" fill="#FFFCE3"/>
<path d="M249.102 181.612C249.102 181.57 249.102 181.528 249.102 181.484C249.102 179.268 244.788 177.469 239.452 177.465C234.116 177.462 229.779 179.256 229.771 181.472C229.771 181.81 243.09 268.988 243.09 268.988L259.66 269L249.102 181.612Z" fill="#B5252B"/>
<path d="M286.873 181.612C286.873 181.57 286.873 181.528 286.873 181.486C286.873 179.268 282.47 177.469 277.015 177.465C271.559 177.462 267.14 179.258 267.132 181.472C267.132 181.761 274.799 268.99 274.799 268.99L291.417 269L286.873 181.612Z" fill="#B5252B"/>
<path d="M315.709 177.465C310.556 177.465 306.373 179.255 306.361 181.47C306.361 181.514 306.361 181.557 306.361 181.599L307.662 268.99L323.68 269C323.68 269 325.038 181.724 325.042 181.484C325.038 179.268 320.865 177.469 315.709 177.465Z" fill="#B5252B"/>
<path d="M354.429 177.465C348.982 177.465 344.563 179.255 344.555 181.471C344.555 181.515 344.555 181.557 344.555 181.599L339.986 268.99L356.886 269C356.886 269 364.271 181.704 364.271 181.42C364.279 179.206 359.872 177.469 354.429 177.465Z" fill="#B5252B"/>
<path d="M401.632 183.339C401.632 181.13 397.491 179.337 392.364 179.333C387.237 179.33 383.148 181.084 383.07 183.264L373.611 268.99L388.988 269C388.988 269 401.632 183.687 401.632 183.339Z" fill="#B5252B"/>
<g opacity="0.1">
<path opacity="0.1" d="M376.166 286.334C376.198 263.197 349.252 244.402 315.98 244.356C282.707 244.31 255.709 263.029 255.676 286.166C255.644 309.304 282.59 328.098 315.862 328.144C349.134 328.191 376.133 309.472 376.166 286.334Z" fill="#000100"/>
</g>
<path d="M377.005 159.859C377.439 161.804 378.45 163.575 379.905 164.941C381.907 166.812 384.557 167.839 387.301 167.809C390.045 167.778 392.671 166.693 394.632 164.778C396.333 163.116 397.374 160.897 397.563 158.53C397.753 156.162 397.077 153.807 395.662 151.897C397.237 151.271 398.67 150.335 399.875 149.145C401.031 148.016 401.945 146.665 402.563 145.174C403.181 143.683 403.49 142.082 403.47 140.469C403.451 138.855 403.104 137.263 402.451 135.787C401.798 134.31 400.851 132.982 399.669 131.88C397.241 129.612 394.028 128.366 390.701 128.403C387.374 128.44 384.19 129.756 381.813 132.078C380.382 133.489 379.324 135.232 378.735 137.152C376.528 136.372 374.145 136.225 371.858 136.729C369.572 137.233 367.473 138.366 365.8 140.001C364.68 141.095 363.794 142.404 363.195 143.849C362.596 145.294 362.297 146.845 362.316 148.409C362.335 149.972 362.671 151.516 363.305 152.946C363.938 154.376 364.856 155.664 366.002 156.731C367.452 158.09 369.208 159.084 371.123 159.628C373.037 160.173 375.054 160.252 377.005 159.859Z" fill="#FAEDD3"/>
<path d="M366.002 156.723C367.452 158.084 369.207 159.079 371.122 159.625C373.036 160.17 375.053 160.251 377.005 159.859C377.439 161.804 378.45 163.575 379.905 164.941C381.093 166.049 382.522 166.871 384.079 167.341C385.636 167.812 387.282 167.919 388.887 167.654C387.122 166.995 385.506 165.989 384.138 164.696C382.694 163.348 381.569 161.697 380.843 159.862C380.117 158.028 379.808 156.055 379.94 154.087C377.929 154.267 375.904 154.02 373.996 153.362C372.088 152.705 370.341 151.652 368.87 150.273C366.363 147.929 364.855 144.714 364.657 141.292C362.928 143.574 362.109 146.415 362.357 149.265C362.606 152.115 363.904 154.772 366.002 156.723Z" fill="#EEC36B"/>
</g>
<path d="M242.788 83.224C240.809 83.224 239.027 82.7947 237.44 81.936C235.853 81.0587 234.603 79.8547 233.688 78.324C232.792 76.7933 232.344 75.0853 232.344 73.2C232.344 71.3147 232.792 69.6067 233.688 68.076C234.603 66.5453 235.853 65.3507 237.44 64.492C239.027 63.6147 240.809 63.176 242.788 63.176C244.748 63.176 246.521 63.6147 248.108 64.492C249.695 65.3507 250.936 66.5453 251.832 68.076C252.728 69.588 253.176 71.296 253.176 73.2C253.176 75.104 252.728 76.8213 251.832 78.352C250.936 79.864 249.695 81.0587 248.108 81.936C246.521 82.7947 244.748 83.224 242.788 83.224ZM242.788 80.732C244.225 80.732 245.513 80.4053 246.652 79.752C247.809 79.0987 248.715 78.2027 249.368 77.064C250.04 75.9067 250.376 74.6187 250.376 73.2C250.376 71.7813 250.04 70.5027 249.368 69.364C248.715 68.2067 247.809 67.3013 246.652 66.648C245.513 65.9947 244.225 65.668 242.788 65.668C241.351 65.668 240.044 65.9947 238.868 66.648C237.711 67.3013 236.796 68.2067 236.124 69.364C235.471 70.5027 235.144 71.7813 235.144 73.2C235.144 74.6187 235.471 75.9067 236.124 77.064C236.796 78.2027 237.711 79.0987 238.868 79.752C240.044 80.4053 241.351 80.732 242.788 80.732ZM262.496 64.268C260.89 64.268 260.088 65.136 260.088 66.872V68.16H264.4V70.372H260.144V83H257.456V70.372H254.936V68.16H257.456V66.844C257.456 65.3693 257.885 64.2027 258.744 63.344C259.602 62.4853 260.806 62.056 262.356 62.056C262.953 62.056 263.513 62.1307 264.036 62.28C264.558 62.4293 265.006 62.644 265.38 62.924L264.568 64.968C263.952 64.5013 263.261 64.268 262.496 64.268ZM272.367 64.268C270.761 64.268 269.959 65.136 269.959 66.872V68.16H274.271V70.372H270.015V83H267.327V70.372H264.807V68.16H267.327V66.844C267.327 65.3693 267.756 64.2027 268.615 63.344C269.473 62.4853 270.677 62.056 272.227 62.056C272.824 62.056 273.384 62.1307 273.907 62.28C274.429 62.4293 274.877 62.644 275.251 62.924L274.439 64.968C273.823 64.5013 273.132 64.268 272.367 64.268ZM279.059 68.16H281.747V83H279.059V68.16ZM280.403 65.304C279.88 65.304 279.441 65.136 279.087 64.8C278.751 64.464 278.583 64.0533 278.583 63.568C278.583 63.0827 278.751 62.672 279.087 62.336C279.441 61.9813 279.88 61.804 280.403 61.804C280.925 61.804 281.355 61.972 281.691 62.308C282.045 62.6253 282.223 63.0267 282.223 63.512C282.223 64.016 282.045 64.4453 281.691 64.8C281.355 65.136 280.925 65.304 280.403 65.304ZM293.336 83.168C291.824 83.168 290.471 82.8413 289.276 82.188C288.1 81.5347 287.176 80.6387 286.504 79.5C285.832 78.3427 285.496 77.036 285.496 75.58C285.496 74.124 285.832 72.8267 286.504 71.688C287.176 70.5307 288.1 69.6347 289.276 69C290.471 68.3467 291.824 68.02 293.336 68.02C294.68 68.02 295.875 68.2907 296.92 68.832C297.984 69.3733 298.806 70.1573 299.384 71.184L297.34 72.5C296.874 71.7907 296.295 71.2587 295.604 70.904C294.914 70.5493 294.148 70.372 293.308 70.372C292.338 70.372 291.46 70.5867 290.676 71.016C289.911 71.4453 289.304 72.0613 288.856 72.864C288.427 73.648 288.212 74.5533 288.212 75.58C288.212 76.6253 288.427 77.5493 288.856 78.352C289.304 79.136 289.911 79.7427 290.676 80.172C291.46 80.6013 292.338 80.816 293.308 80.816C294.148 80.816 294.914 80.6387 295.604 80.284C296.295 79.9293 296.874 79.3973 297.34 78.688L299.384 79.976C298.806 81.0027 297.984 81.796 296.92 82.356C295.875 82.8973 294.68 83.168 293.336 83.168ZM316.058 75.664C316.058 75.8693 316.039 76.14 316.002 76.476H303.962C304.13 77.7827 304.699 78.8373 305.67 79.64C306.659 80.424 307.882 80.816 309.338 80.816C311.111 80.816 312.539 80.2187 313.622 79.024L315.106 80.76C314.434 81.544 313.594 82.1413 312.586 82.552C311.596 82.9627 310.486 83.168 309.254 83.168C307.686 83.168 306.295 82.8507 305.082 82.216C303.868 81.5627 302.926 80.6573 302.254 79.5C301.6 78.3427 301.274 77.036 301.274 75.58C301.274 74.1427 301.591 72.8453 302.226 71.688C302.879 70.5307 303.766 69.6347 304.886 69C306.024 68.3467 307.303 68.02 308.722 68.02C310.14 68.02 311.4 68.3467 312.502 69C313.622 69.6347 314.49 70.5307 315.106 71.688C315.74 72.8453 316.058 74.1707 316.058 75.664ZM308.722 70.288C307.434 70.288 306.351 70.68 305.474 71.464C304.615 72.248 304.111 73.2747 303.962 74.544H313.482C313.332 73.2933 312.819 72.276 311.942 71.492C311.083 70.6893 310.01 70.288 308.722 70.288ZM344.558 63.4V83H341.758V74.264H330.502V83H327.702V63.4H330.502V71.828H341.758V63.4H344.558ZM356.388 83.168C354.914 83.168 353.588 82.8413 352.412 82.188C351.236 81.5347 350.312 80.6387 349.64 79.5C348.987 78.3427 348.66 77.036 348.66 75.58C348.66 74.124 348.987 72.8267 349.64 71.688C350.312 70.5307 351.236 69.6347 352.412 69C353.588 68.3467 354.914 68.02 356.388 68.02C357.863 68.02 359.179 68.3467 360.336 69C361.512 69.6347 362.427 70.5307 363.08 71.688C363.752 72.8267 364.088 74.124 364.088 75.58C364.088 77.036 363.752 78.3427 363.08 79.5C362.427 80.6387 361.512 81.5347 360.336 82.188C359.179 82.8413 357.863 83.168 356.388 83.168ZM356.388 80.816C357.34 80.816 358.19 80.6013 358.936 80.172C359.702 79.724 360.299 79.108 360.728 78.324C361.158 77.5213 361.372 76.6067 361.372 75.58C361.372 74.5533 361.158 73.648 360.728 72.864C360.299 72.0613 359.702 71.4453 358.936 71.016C358.19 70.5867 357.34 70.372 356.388 70.372C355.436 70.372 354.578 70.5867 353.812 71.016C353.066 71.4453 352.468 72.0613 352.02 72.864C351.591 73.648 351.376 74.5533 351.376 75.58C351.376 76.6067 351.591 77.5213 352.02 78.324C352.468 79.108 353.066 79.724 353.812 80.172C354.578 80.6013 355.436 80.816 356.388 80.816ZM381.638 68.16V83H379.09V80.76C378.548 81.5253 377.83 82.1227 376.934 82.552C376.056 82.9627 375.095 83.168 374.05 83.168C372.071 83.168 370.512 82.6267 369.374 81.544C368.235 80.4427 367.666 78.828 367.666 76.7V68.16H370.354V76.392C370.354 77.8293 370.699 78.9213 371.39 79.668C372.08 80.396 373.07 80.76 374.358 80.76C375.776 80.76 376.896 80.3307 377.718 79.472C378.539 78.6133 378.95 77.4 378.95 75.832V68.16H381.638ZM389.331 70.652C389.798 69.7933 390.488 69.14 391.403 68.692C392.318 68.244 393.428 68.02 394.735 68.02V70.624C394.586 70.6053 394.38 70.596 394.119 70.596C392.663 70.596 391.515 71.0347 390.675 71.912C389.854 72.7707 389.443 74.0027 389.443 75.608V83H386.755V68.16H389.331V70.652ZM402.413 83.168C401.2 83.168 400.033 83.0093 398.913 82.692C397.793 82.356 396.916 81.936 396.281 81.432L397.401 79.304C398.055 79.7707 398.848 80.144 399.781 80.424C400.715 80.704 401.657 80.844 402.609 80.844C404.961 80.844 406.137 80.172 406.137 78.828C406.137 78.38 405.979 78.0253 405.661 77.764C405.344 77.5027 404.943 77.316 404.457 77.204C403.991 77.0733 403.319 76.9333 402.441 76.784C401.247 76.5973 400.267 76.3827 399.501 76.14C398.755 75.8973 398.111 75.4867 397.569 74.908C397.028 74.3293 396.757 73.5173 396.757 72.472C396.757 71.128 397.317 70.0547 398.437 69.252C399.557 68.4307 401.06 68.02 402.945 68.02C403.935 68.02 404.924 68.1413 405.913 68.384C406.903 68.6267 407.715 68.9533 408.349 69.364L407.201 71.492C405.988 70.708 404.56 70.316 402.917 70.316C401.779 70.316 400.911 70.5027 400.313 70.876C399.716 71.2493 399.417 71.744 399.417 72.36C399.417 72.8453 399.585 73.228 399.921 73.508C400.257 73.788 400.668 73.9933 401.153 74.124C401.657 74.2547 402.357 74.404 403.253 74.572C404.448 74.7773 405.409 75.0013 406.137 75.244C406.884 75.468 407.519 75.86 408.041 76.42C408.564 76.98 408.825 77.764 408.825 78.772C408.825 80.116 408.247 81.1893 407.089 81.992C405.951 82.776 404.392 83.168 402.413 83.168Z" fill="white"/>
<defs>
<clipPath id="clip0">
<rect width="192.41" height="190.542" fill="white" transform="translate(224.167 78.4583)"/>
</clipPath>
</defs>
</svg>
