<?xml version="1.0" encoding="utf-8"?>
<!-- Generator: Adobe Illustrator 23.0.1, SVG Export Plug-In . SVG Version: 6.00 Build 0)  -->
<svg version="1.1" id="Layer_1" xmlns="http://www.w3.org/2000/svg" xmlns:xlink="http://www.w3.org/1999/xlink" x="0px" y="0px"
	 viewBox="0 0 1429 1370" style="enable-background:new 0 0 1429 1370;" xml:space="preserve">
<style type="text/css">
	.st0{fill:#A88CD9;}
</style>
<path class="st0" d="M849.4,108c-0.5-0.1-0.9-0.1-1.4-0.2c1.1,0.2,2.1,0.3,3.2,0.5c0.2,0,0.5,0.1,0.7,0.1
	C851.1,108.2,850.3,108.1,849.4,108z M823.9,104.6c-0.5-0.1-1.1-0.1-1.6-0.2c0.9,0.1,1.8,0.2,2.7,0.3
	C824.7,104.7,824.3,104.7,823.9,104.6z M757,101.2h-1.2c-1,0-2,0-2.9,0c2.2,0,4.5,0,6.7-0.1C758.6,101.2,757.8,101.2,757,101.2z
	 M739.9,101.5c0.6,0,1.3,0,1.9-0.1c0.7,0,1.5,0,2.2-0.1c0.5,0,1,0,1.5,0C743.6,101.4,741.7,101.4,739.9,101.5z"/>
<path class="st0" d="M787.9,101.8c-0.4,0-0.8,0-1.2-0.1c0.7,0,1.3,0.1,2,0.1C788.5,101.9,788.2,101.8,787.9,101.8z"/>
<path class="st0" d="M932.7,126.9c-0.5-0.1-0.9-0.3-1.4-0.4c0,0-0.1,0-0.1,0c-0.1,0-0.3-0.1-0.4-0.1c0.8,0.2,1.6,0.5,2.4,0.7
	C933,127,932.8,127,932.7,126.9z"/>
<path class="st0" d="M840.8,106.7C840.9,106.7,840.9,106.7,840.8,106.7c0.2,0,0.3,0,0.4,0.1C841.1,106.8,841,106.8,840.8,106.7z
	 M840.8,106.7C840.8,106.7,840.8,106.7,840.8,106.7c0,0-0.1,0-0.2,0C840.6,106.7,840.7,106.7,840.8,106.7z"/>
<path class="st0" d="M272.8,150.5c-3.9,3.1-7.8,6.2-11.6,9.4C265,156.7,268.9,153.6,272.8,150.5z"/>
<path class="st0" d="M346.9,99.6c-3.5,2.1-7,4.2-10.4,6.3C340,103.8,343.4,101.7,346.9,99.6z"/>
<path class="st0" d="M400,71.2c-4.5,2.2-9,4.4-13.5,6.7C391,75.6,395.5,73.4,400,71.2z"/>
<path class="st0" d="M861.8,21c-0.2,0-0.4-0.1-0.6-0.1c0,0,0.1,0,0.1,0C861.5,21,861.6,21,861.8,21z"/>
<path class="st0" d="M117.4,1087.7c2,2.8,4.1,5.7,6.3,8.4C121.6,1093.4,119.5,1090.6,117.4,1087.7z M117.4,1087.7
	c2,2.8,4.1,5.7,6.3,8.4C121.6,1093.4,119.5,1090.6,117.4,1087.7z"/>
<path class="st0" d="M117.4,1087.7c2,2.8,4.1,5.7,6.3,8.4C121.6,1093.4,119.5,1090.6,117.4,1087.7z M117.4,1087.7
	c2,2.8,4.1,5.7,6.3,8.4C121.6,1093.4,119.5,1090.6,117.4,1087.7z"/>
<path class="st0" d="M117.4,1087.7c2,2.8,4.1,5.7,6.3,8.4C121.6,1093.4,119.5,1090.6,117.4,1087.7z M117.4,1087.7
	c2,2.8,4.1,5.7,6.3,8.4C121.6,1093.4,119.5,1090.6,117.4,1087.7z"/>
<path class="st0" d="M117.4,1087.7c2,2.8,4.1,5.7,6.3,8.4C121.6,1093.4,119.5,1090.6,117.4,1087.7z M117.4,1087.7
	c2,2.8,4.1,5.7,6.3,8.4C121.6,1093.4,119.5,1090.6,117.4,1087.7z"/>
<path class="st0" d="M117.4,1087.7c2,2.8,4.1,5.7,6.3,8.4C121.6,1093.4,119.5,1090.6,117.4,1087.7z M117.4,1087.7
	c2,2.8,4.1,5.7,6.3,8.4C121.6,1093.4,119.5,1090.6,117.4,1087.7z"/>
<path class="st0" d="M117.4,1087.7c2,2.8,4.1,5.7,6.3,8.4C121.6,1093.4,119.5,1090.6,117.4,1087.7z M117.4,1087.7
	c2,2.8,4.1,5.7,6.3,8.4C121.6,1093.4,119.5,1090.6,117.4,1087.7z"/>
<path class="st0" d="M117.4,1087.7c2,2.8,4.1,5.7,6.3,8.4C121.6,1093.4,119.5,1090.6,117.4,1087.7z M117.4,1087.7
	c2,2.8,4.1,5.7,6.3,8.4C121.6,1093.4,119.5,1090.6,117.4,1087.7z"/>
<path class="st0" d="M117.4,1087.7c2,2.8,4.1,5.7,6.3,8.4C121.6,1093.4,119.5,1090.6,117.4,1087.7z M117.4,1087.7
	c2,2.8,4.1,5.7,6.3,8.4C121.6,1093.4,119.5,1090.6,117.4,1087.7z"/>
<path class="st0" d="M117.4,1087.7c2,2.8,4.1,5.7,6.3,8.4C121.6,1093.4,119.5,1090.6,117.4,1087.7z M117.4,1087.7
	c2,2.8,4.1,5.7,6.3,8.4C121.6,1093.4,119.5,1090.6,117.4,1087.7z"/>
<path class="st0" d="M117.4,1087.7c2,2.8,4.1,5.7,6.3,8.4C121.6,1093.4,119.5,1090.6,117.4,1087.7z M117.4,1087.7
	c2,2.8,4.1,5.7,6.3,8.4C121.6,1093.4,119.5,1090.6,117.4,1087.7z"/>
<path class="st0" d="M117.4,1087.7c2,2.8,4.1,5.7,6.3,8.4C121.6,1093.4,119.5,1090.6,117.4,1087.7z M117.4,1087.7
	c2,2.8,4.1,5.7,6.3,8.4C121.6,1093.4,119.5,1090.6,117.4,1087.7z"/>
<path class="st0" d="M117.4,1087.7c2,2.8,4.1,5.7,6.3,8.4C121.6,1093.4,119.5,1090.6,117.4,1087.7z M117.4,1087.7
	c2,2.8,4.1,5.7,6.3,8.4C121.6,1093.4,119.5,1090.6,117.4,1087.7z"/>
<path class="st0" d="M117.4,1087.7c2,2.8,4.1,5.7,6.3,8.4C121.6,1093.4,119.5,1090.6,117.4,1087.7z M117.4,1087.7
	c2,2.8,4.1,5.7,6.3,8.4C121.6,1093.4,119.5,1090.6,117.4,1087.7z"/>
<path class="st0" d="M117.4,1087.7c2,2.8,4.1,5.7,6.3,8.4C121.6,1093.4,119.5,1090.6,117.4,1087.7z M117.4,1087.7
	c2,2.8,4.1,5.7,6.3,8.4C121.6,1093.4,119.5,1090.6,117.4,1087.7z"/>
<path class="st0" d="M117.4,1087.7c2,2.8,4.1,5.7,6.3,8.4C121.6,1093.4,119.5,1090.6,117.4,1087.7z M117.4,1087.7
	c2,2.8,4.1,5.7,6.3,8.4C121.6,1093.4,119.5,1090.6,117.4,1087.7z"/>
<path class="st0" d="M117.4,1087.7c2,2.8,4.1,5.7,6.3,8.4C121.6,1093.4,119.5,1090.6,117.4,1087.7z M117.4,1087.7
	c2,2.8,4.1,5.7,6.3,8.4C121.6,1093.4,119.5,1090.6,117.4,1087.7z"/>
<path class="st0" d="M117.4,1087.7c2,2.8,4.1,5.7,6.3,8.4C121.6,1093.4,119.5,1090.6,117.4,1087.7z M117.4,1087.7
	c2,2.8,4.1,5.7,6.3,8.4C121.6,1093.4,119.5,1090.6,117.4,1087.7z"/>
<path class="st0" d="M117.4,1087.7c2,2.8,4.1,5.7,6.3,8.4C121.6,1093.4,119.5,1090.6,117.4,1087.7z M117.4,1087.7
	c2,2.8,4.1,5.7,6.3,8.4C121.6,1093.4,119.5,1090.6,117.4,1087.7z"/>
<path class="st0" d="M117.4,1087.7c2,2.8,4.1,5.7,6.3,8.4C121.6,1093.4,119.5,1090.6,117.4,1087.7z M117.4,1087.7
	c2,2.8,4.1,5.7,6.3,8.4C121.6,1093.4,119.5,1090.6,117.4,1087.7z"/>
<path class="st0" d="M117.4,1087.7c2,2.8,4.1,5.7,6.3,8.4C121.6,1093.4,119.5,1090.6,117.4,1087.7z M117.4,1087.7
	c2,2.8,4.1,5.7,6.3,8.4C121.6,1093.4,119.5,1090.6,117.4,1087.7z"/>
<path class="st0" d="M117.4,1087.7c2,2.8,4.1,5.7,6.3,8.4C121.6,1093.4,119.5,1090.6,117.4,1087.7z M117.4,1087.7
	c2,2.8,4.1,5.7,6.3,8.4C121.6,1093.4,119.5,1090.6,117.4,1087.7z"/>
<path class="st0" d="M117.4,1087.7c2,2.8,4.1,5.7,6.3,8.4C121.6,1093.4,119.5,1090.6,117.4,1087.7z M117.4,1087.7
	c2,2.8,4.1,5.7,6.3,8.4C121.6,1093.4,119.5,1090.6,117.4,1087.7z"/>
<path class="st0" d="M117.4,1087.7c2,2.8,4.1,5.7,6.3,8.4C121.6,1093.4,119.5,1090.6,117.4,1087.7z M117.4,1087.7
	c2,2.8,4.1,5.7,6.3,8.4C121.6,1093.4,119.5,1090.6,117.4,1087.7z"/>
<path class="st0" d="M117.4,1087.7c2,2.8,4.1,5.7,6.3,8.4C121.6,1093.4,119.5,1090.6,117.4,1087.7z M117.4,1087.7
	c2,2.8,4.1,5.7,6.3,8.4C121.6,1093.4,119.5,1090.6,117.4,1087.7z"/>
<path class="st0" d="M1360.5,332.1c-50.2-95.3-125.3-175-217.4-230.8c-92-55.8-197.7-85.5-305.3-85.9C790,5,741.2-0.1,692.3,0
	C331.4,0,34.8,280.9,9.5,635.7c0,0,0,0,0,0.1C-15.6,774.5,9.4,917.6,80,1039.6c70.6,122,182.3,214.9,315,262.2c0,0,0,0,0,0
	c84.3,40.6,175.9,63.6,269.4,67.4c93.5,3.8,186.8-11.6,274.1-45.2c87.3-33.7,166.8-84.9,233.6-150.5
	c66.7-65.6,119.3-144.2,154.5-231c60.4-89.1,95.5-193,101.5-300.5C1434.1,534.5,1410.7,427.4,1360.5,332.1z M861.3,20.9
	c0.2,0,0.3,0.1,0.5,0.1C861.6,21,861.4,21,861.3,20.9C861.3,20.9,861.3,20.9,861.3,20.9z M373.2,244.6
	c20.2-25.5,42.4-49.3,66.5-71.1c20.5-5.6,41.2-10.1,62.2-13.4c0.2,0,0.3-0.1,0.5-0.1c-0.2,0.1-0.3,0.2-0.5,0.3
	C455.5,182.7,412.3,211,373.2,244.6c0,0.1-0.1,0.2-0.2,0.3C373,244.8,373.1,244.7,373.2,244.6z M16.6,857.4
	c0.7,3.4,1.4,6.9,2.2,10.3C18,864.3,17.3,860.9,16.6,857.4z M117.4,1087.7c2.1,2.8,4.1,5.7,6.3,8.4
	C121.6,1093.4,119.5,1090.6,117.4,1087.7z M213.9,1191.7c2.7,2.3,5.4,4.5,8.1,6.7C219.3,1196.2,216.6,1194,213.9,1191.7z
	 M397.6,1297.3c-0.1-0.1-0.2-0.1-0.3-0.1c-115.1-55.6-212.3-142.5-280.3-250.8C49,938,12.9,812.8,12.7,684.9
	c0-15.9,0.5-31.6,1.6-47.2c0.1-0.5,0.2-0.9,0.2-1.4c25.9-141.5,102.7-268.6,215.9-357.4c0,0,0.1-0.1,0.1-0.1c0,0,0,0,0,0.1
	c-53.1,81.8-85.2,175.4-93.5,272.5c-8.3,97.2,7.4,194.9,45.8,284.5c0,0,0,0.1,0.1,0.1c31.6,129.2,105.6,244,210.1,326.2
	c104.6,82.2,233.7,127,366.7,127.2c19.8,0,39.3-1,58.5-2.9C684.1,1341.8,534.3,1345.6,397.6,1297.3z M187.9,835
	c-0.2-0.4-0.3-0.7-0.5-1.1c-0.1-0.4-0.2-0.8-0.3-1.1c0.1,0.3,0.3,0.7,0.4,1c0,0,0,0.1,0.1,0.1c0,0,0,0,0,0
	C187.8,834.3,187.8,834.7,187.9,835z M687.8,1185.2c4.4,1.1,8.7,2.2,13.1,3.2C696.5,1187.4,692.1,1186.3,687.8,1185.2z
	 M980.3,1185.9c0.1-0.1,0.3-0.2,0.4-0.3l0.1,0.2C980.6,1185.8,980.5,1185.8,980.3,1185.9z M989,1178.1
	c-71.9,19.5-146.8,25.2-220.7,16.7c108.4-7.1,212.8-44.1,301.5-106.8C1046,1120.7,1019,1150.9,989,1178.1z M738.9,1190.7h-0.2
	c-98.8-16.3-191.8-57.6-270.2-119.9c-78.4-62.3-139.6-143.6-177.8-236.2c-38.2-92.6-52.2-193.4-40.6-292.9
	c11.6-99.4,48.4-194.3,106.8-275.5c0,0,0.1-0.1,0.1-0.1c47.7-44.9,102.5-81.5,162.2-108.4c0.2-0.1,0.3-0.1,0.5-0.2
	c112.5-14.3,226.7,4.2,328.9,53.3C951,259.8,1037,337.6,1096.2,434.5c59.2,97,89.1,209,86.1,322.5c-3,113.6-38.8,223.9-103,317.5
	C980.9,1148.1,861.7,1188.7,738.9,1190.7z M1091.8,1065c58.2-89.6,91.1-193.3,95.2-300.1c4.2-106.8-20.6-212.8-71.6-306.7
	c-51-93.9-126.4-172.3-218.2-226.9c-91.8-54.6-196.7-83.4-303.5-83.4c-19.7,0-39.3,0.9-58.5,2.8c143-59,303.5-59.4,446.8-0.9
	c143.3,58.5,257.8,171,318.7,313.3c26.6,109.8,21,224.9-16.1,331.7C1247.6,901.5,1180.7,995.3,1091.8,1065z"/>
<path class="st0" d="M1335.4,919.5c-2.8,7.7-5.7,15.3-8.8,22.8c-4.5,6.6-9.1,13.1-13.9,19.6c3.2-7.2,6.3-14.4,9.3-21.7
	c0.1-0.1,0.1-0.3,0.2-0.4c1.7-2.6,3.4-5.1,5.2-7.7C1330.1,927.9,1332.8,923.7,1335.4,919.5z"/>
<path class="st0" d="M117.4,1087.7c2,2.8,4.1,5.7,6.3,8.4C121.6,1093.4,119.5,1090.6,117.4,1087.7z M117.4,1087.7
	c2,2.8,4.1,5.7,6.3,8.4C121.6,1093.4,119.5,1090.6,117.4,1087.7z"/>
<path class="st0" d="M980.8,1185.7c-0.2,0-0.3,0.1-0.5,0.1c0.1-0.1,0.3-0.2,0.4-0.3L980.8,1185.7z"/>
<path class="st0" d="M739.9,101.5c-0.1,0-0.2,0-0.3,0c0.7,0,1.5-0.1,2.2-0.1c0.7,0,1.5,0,2.2-0.1c0.5,0,1,0,1.5,0
	C743.6,101.4,741.7,101.4,739.9,101.5z M757,101.2h-1.2c-1,0-2,0-2.9,0c2.2,0,4.5,0,6.7-0.1C758.6,101.2,757.8,101.2,757,101.2z
	 M787.9,101.8c-0.4,0-0.8,0-1.2-0.1c0.7,0,1.3,0.1,2,0.1C788.5,101.9,788.2,101.8,787.9,101.8z M823.9,104.6
	c-0.5-0.1-1.1-0.1-1.6-0.2c0.9,0.1,1.8,0.2,2.7,0.3C824.7,104.7,824.3,104.7,823.9,104.6z M843,107c-0.4-0.1-0.8-0.1-1.2-0.2
	c0.9,0.1,1.8,0.2,2.7,0.4C844,107.2,843.5,107.1,843,107z M855.8,109c-1.3-0.2-2.6-0.4-3.9-0.6c-0.8-0.1-1.7-0.3-2.5-0.4
	c-0.5-0.1-0.9-0.1-1.4-0.2c1.1,0.2,2.1,0.3,3.2,0.5c2.4,0.4,4.7,0.8,7.1,1.1C857.5,109.3,856.6,109.1,855.8,109z M900,118
	c-1.1-0.3-2.2-0.5-3.3-0.8c1.6,0.4,3.2,0.8,4.8,1.2C901.1,118.2,900.5,118.1,900,118z M932.7,126.9c-0.5-0.1-0.9-0.3-1.4-0.4
	c0,0-0.1,0-0.1,0c-0.1,0-0.3-0.1-0.4-0.1c0.8,0.2,1.6,0.5,2.4,0.7C933,127,932.8,127,932.7,126.9z M937.5,128.4
	c-0.1,0-0.2-0.1-0.3-0.1c-0.7-0.2-1.4-0.4-2.1-0.7c1,0.3,2.1,0.7,3.1,1C938,128.6,937.8,128.5,937.5,128.4z M943.6,130.4
	c-0.3-0.1-0.5-0.2-0.8-0.2c2.3,0.8,4.6,1.5,6.9,2.3C947.7,131.7,945.7,131,943.6,130.4z M1305.6,461.6c0,0,0-0.1,0-0.1
	c-4-9.3-8.2-18.4-12.6-27.5c0,0,0,0.1,0,0.1c2.9,9.6,5.5,19.3,7.8,29c4,9.3,7.8,18.7,11.2,28.2
	C1310.2,481.3,1308,471.3,1305.6,461.6z M187.7,834C187.7,833.9,187.7,833.9,187.7,834c0-0.1,0-0.1-0.1-0.2c-0.1-0.3-0.3-0.7-0.4-1
	c0.1,0.4,0.2,0.8,0.3,1.1c0.2,0.4,0.3,0.7,0.5,1.1C187.8,834.7,187.8,834.3,187.7,834z"/>
<path class="st0" d="M1322.9,866.7c-1.1,3.5-2.1,7-3.3,10.4C1320.8,873.6,1321.9,870.2,1322.9,866.7z"/>
<path class="st0" d="M980.8,1185.7c-0.2,0-0.3,0.1-0.5,0.1c0.1-0.1,0.3-0.2,0.4-0.3L980.8,1185.7z"/>
<path class="st0" d="M331.6,291.5c-5.2,5.5-10.2,11.1-15.2,16.7C321.4,302.5,326.4,296.9,331.6,291.5z"/>
<path class="st0" d="M187.9,835c-0.2-0.4-0.3-0.7-0.5-1.1c-0.1-0.4-0.2-0.8-0.3-1.1c0.1,0.3,0.3,0.7,0.4,1c0,0,0,0.1,0.1,0.1
	c0,0,0,0,0,0C187.8,834.3,187.8,834.7,187.9,835z"/>
<path class="st0" d="M1327.3,932.1c-1.7,2.6-3.4,5.1-5.2,7.7c-0.1,0.1-0.1,0.3-0.2,0.4c-3,7.3-6.1,14.5-9.3,21.7
	c4.8-6.4,9.4-13,13.9-19.6c3.1-7.5,6-15.2,8.8-22.8c0,0,0,0,0,0c0-0.1,0.1-0.3,0.1-0.4C1332.9,923.5,1330.1,927.8,1327.3,932.1z"/>
<path class="st0" d="M861.8,21c-0.2,0-0.4-0.1-0.6-0.1c0,0,0.1,0,0.1,0C861.5,21,861.6,21,861.8,21z"/>
<path class="st0" d="M1335.6,919.1c0,0.1-0.1,0.3-0.1,0.4c0,0,0,0,0,0c-4.2,6.9-8.7,13.8-13.3,20.5c-0.1,0.1-0.1,0.2-0.2,0.2
	c0.1-0.1,0.1-0.3,0.2-0.4c1.7-2.6,3.4-5.1,5.2-7.7C1330.1,927.8,1332.9,923.5,1335.6,919.1z"/>
<path class="st0" d="M759.5,101.2c-2.2,0-4.5,0-6.7,0.1c1,0,2,0,2.9,0h1.2C757.8,101.2,758.6,101.2,759.5,101.2z"/>
<path class="st0" d="M745.4,101.3c-0.5,0-1,0-1.5,0c-0.7,0-1.5,0-2.2,0.1c-0.7,0-1.5,0-2.2,0.1c0.1,0,0.2,0,0.3,0
	C741.7,101.4,743.6,101.4,745.4,101.3z"/>
<path class="st0" d="M825,104.8c-0.9-0.1-1.8-0.2-2.7-0.3c0.5,0.1,1.1,0.1,1.6,0.2C824.3,104.7,824.7,104.7,825,104.8z"/>
<path class="st0" d="M844.5,107.2c-0.9-0.1-1.8-0.3-2.7-0.4c0.4,0,0.8,0.1,1.2,0.2C843.5,107.1,844,107.2,844.5,107.2z"/>
<path class="st0" d="M858.3,109.4c-2.4-0.4-4.7-0.8-7.1-1.1c-1.1-0.2-2.1-0.3-3.2-0.5c0.5,0.1,0.9,0.1,1.4,0.2
	c0.8,0.1,1.7,0.3,2.5,0.4c1.3,0.2,2.6,0.4,3.9,0.6C856.6,109.1,857.5,109.3,858.3,109.4z"/>
<path class="st0" d="M901.6,118.3c-1.6-0.4-3.2-0.8-4.8-1.2c1.1,0.2,2.2,0.5,3.3,0.8C900.5,118.1,901.1,118.2,901.6,118.3z"/>
<path class="st0" d="M933.2,127.1c-0.8-0.3-1.6-0.5-2.4-0.7c0.1,0,0.3,0.1,0.4,0.1c0,0,0.1,0,0.1,0c0.5,0.1,0.9,0.3,1.4,0.4
	C932.8,127,933,127,933.2,127.1z"/>
<path class="st0" d="M938.2,128.6c-1-0.3-2.1-0.7-3.1-1c0.7,0.2,1.4,0.4,2.1,0.7c0.1,0,0.2,0.1,0.3,0.1
	C937.8,128.5,938,128.6,938.2,128.6z"/>
<path class="st0" d="M949.7,132.4c-2.3-0.8-4.6-1.5-6.9-2.3c0.3,0.1,0.5,0.2,0.8,0.2C945.7,131,947.7,131.7,949.7,132.4z"/>
<path class="st0" d="M1305.6,461.6C1305.6,461.6,1305.6,461.6,1305.6,461.6c-4-9.3-8.2-18.5-12.6-27.5c0,0,0-0.1,0-0.1
	c4.5,9,8.7,18.2,12.6,27.5C1305.6,461.5,1305.6,461.6,1305.6,461.6z"/>
<path class="st0" d="M764.3,8.8c-7.8-0.5-15.6-0.9-23.4-1.1c6.7,0.1,13.3,0.4,20,0.7C762,8.6,763.1,8.7,764.3,8.8z"/>
<path class="st0" d="M187.9,835c-0.2-0.4-0.3-0.7-0.5-1.1c-0.1-0.4-0.2-0.8-0.3-1.1c0.1,0.3,0.3,0.7,0.4,1c0,0,0,0.1,0.1,0.1
	c0,0,0,0,0,0C187.8,834.3,187.8,834.7,187.9,835z"/>
<path class="st0" d="M1312,491.4c-3.4-9.5-7.2-18.9-11.2-28.2c-2.4-9.8-5-19.5-7.8-29c0,0,0-0.1,0-0.1c4.5,9,8.7,18.2,12.6,27.5
	c0,0.1,0,0.1,0,0.1C1308,471.3,1310.2,481.3,1312,491.4z"/>
<path class="st0" d="M261.2,159.8c3.8-3.2,7.7-6.3,11.6-9.4C268.9,153.6,265,156.7,261.2,159.8z"/>
<path class="st0" d="M336.5,105.9c3.4-2.1,6.9-4.2,10.4-6.3C343.4,101.7,340,103.8,336.5,105.9z"/>
<path class="st0" d="M386.5,77.9c4.5-2.3,9-4.5,13.5-6.7C395.5,73.4,391,75.6,386.5,77.9z"/>
<path class="st0" d="M764.3,8.8c-7.8-0.5-15.6-0.9-23.4-1.1c6.7,0.1,13.3,0.4,20,0.7C762,8.6,763.1,8.7,764.3,8.8z"/>
</svg>
